<svg viewBox="0 0 512 512" xmlns="http://www.w3.org/2000/svg"><path d="M374.515 388.286a3.998 3.998 0 0 0-2.437 2.93l-6.465 32.325a11.927 11.927 0 0 1-6.401 8.38l-21.914 10.958-54.02-77.173a4.003 4.003 0 0 0-5.839-.78l-13.234 11.03c-17.184 14.321-41.633 14.07-58.428-.076l51.88-51.88h45.947l39.612 7.922a3.988 3.988 0 0 0 2.92-.54l152-96-4.272-6.764L428 270.216V124h12a4 4 0 0 0 4-4V72a4 4 0 0 0-4-4H308.166l-46.828-46.828a3.999 3.999 0 0 0-5.656 0L208.854 68H72a4 4 0 0 0-4 4v48a4 4 0 0 0 4 4h12v146.216l-65.864-41.598-4.272 6.764 152 96a4.001 4.001 0 0 0 2.92.54L208.396 324h37.948l-49.172 49.172a3.999 3.999 0 0 0 0 5.656c19.717 19.717 50.735 21.123 72.154 3.274l9.892-8.244 50.846 72.638L256 483.528l-103.212-51.606a11.927 11.927 0 0 1-6.401-8.38l-6.465-32.326a3.998 3.998 0 0 0-2.437-2.93l-120-48-2.97 7.428 117.988 47.195 6.04 30.202c1.22 6.096 5.107 11.187 10.667 13.967l105.001 52.5a4.003 4.003 0 0 0 3.578 0l105.001-52.5c5.56-2.78 9.447-7.871 10.667-13.968l6.04-30.2 117.988-47.196-2.97-7.428-120 48Zm-31.3-64.522-38.43-7.686A3.984 3.984 0 0 0 304 316h-67.876l-6.4-31.05 117.53-24.223 11.03 53.52-15.068 9.517Zm3.299-106.313L380 250.937v49.595l-14.487 9.15-11.23-54.488a4.004 4.004 0 0 0-4.725-3.11l-47.459 9.78 44.415-44.413Zm2.828-8.485a3.999 3.999 0 0 0-5.656 0L322.29 230.36l-40.487-9.013 12.624-37.962L380 211.846v27.778l-30.658-30.658ZM132 261.456l37.692-59.401 45.182 28.67-6.399 28.743-30.319-10.083a4.003 4.003 0 0 0-5.058 2.533l-20.495 61.626L132 300.532v-39.076Zm94.094-44.315 89.493 19.924-27.737 27.737-39.104 8.059-32.64-10.855 9.988-44.865ZM258.51 29.657 296.854 68h-76.688l38.344-38.343ZM92 124h328v151.269l-32 20.21V152a4 4 0 0 0-4-4H128a4 4 0 0 0-4 4v143.48l-32-20.211V124Zm116 192c-.264 0-.526.026-.784.078l-38.432 7.686-9.213-5.82 19.856-59.706 53.666 17.848-8.9 1.835a4.001 4.001 0 0 0-3.111 4.725L227.956 316H208Z" fill="#d6d6d6" class="fill-000000"></path></svg>